<?xml version='1.0' encoding='UTF-8' standalone='no'?>
<svg xmlns='http://www.w3.org/2000/svg' width='162' height='141' viewBox='0 0 162 141' version='1.1'>
  <path
    d="M 34 88 L 33 89 L 31 89 L 30 90 L 28 90 L 27 91 L 25 91 L 24 92 L 22 92 L 21 93 L 20 93 L 19 94 L 18 94 L 17 95 L 16 95 L 15 96 L 14 96 L 12 98 L 11 98 L 7 102 L 6 102 L 5 103 L 5 104 L 2 107 L 2 108 L 1 109 L 1 113 L 0 114 L 0 115 L 1 116 L 1 119 L 2 120 L 2 121 L 7 126 L 8 126 L 10 128 L 11 128 L 12 129 L 13 129 L 14 130 L 15 130 L 16 131 L 18 131 L 19 132 L 21 132 L 22 133 L 24 133 L 25 134 L 28 134 L 29 135 L 32 135 L 33 136 L 38 136 L 39 137 L 45 137 L 46 138 L 58 138 L 59 139 L 97 139 L 98 138 L 112 138 L 113 137 L 121 137 L 122 136 L 128 136 L 129 135 L 134 135 L 135 134 L 138 134 L 139 133 L 142 133 L 143 132 L 145 132 L 146 131 L 148 131 L 149 130 L 150 130 L 151 129 L 152 129 L 153 128 L 154 128 L 155 127 L 156 127 L 159 124 L 159 123 L 160 122 L 160 121 L 161 120 L 161 117 L 160 116 L 160 115 L 159 114 L 159 113 L 154 108 L 153 108 L 151 106 L 150 106 L 149 105 L 148 105 L 147 104 L 146 104 L 145 103 L 144 103 L 143 102 L 142 102 L 141 101 L 140 101 L 139 100 L 138 100 L 137 99 L 135 99 L 134 98 L 92 98 L 91 97 L 81 97 L 80 96 L 74 96 L 73 95 L 68 95 L 67 94 L 62 94 L 61 93 L 57 93 L 56 92 L 52 92 L 51 91 L 47 91 L 46 90 L 43 90 L 42 89 L 39 89 L 38 88 Z M 50 40 L 49 41 L 43 41 L 42 42 L 38 42 L 37 43 L 33 43 L 32 44 L 30 44 L 29 45 L 27 45 L 26 46 L 24 46 L 23 47 L 22 47 L 21 48 L 20 48 L 18 50 L 17 50 L 13 54 L 13 55 L 12 56 L 12 58 L 11 59 L 11 61 L 12 62 L 12 64 L 13 65 L 13 66 L 19 72 L 20 72 L 22 74 L 23 74 L 24 75 L 25 75 L 26 76 L 27 76 L 28 77 L 29 77 L 30 78 L 31 78 L 32 79 L 34 79 L 35 80 L 37 80 L 38 81 L 41 81 L 42 82 L 44 82 L 45 83 L 49 83 L 50 84 L 53 84 L 54 85 L 58 85 L 59 86 L 63 86 L 64 87 L 69 87 L 70 88 L 76 88 L 77 89 L 84 89 L 85 90 L 97 90 L 98 91 L 128 91 L 129 90 L 134 90 L 135 89 L 139 89 L 140 88 L 142 88 L 143 87 L 145 87 L 146 86 L 147 86 L 149 84 L 150 84 L 152 82 L 152 81 L 153 80 L 153 72 L 151 70 L 151 69 L 146 64 L 145 64 L 143 62 L 142 62 L 140 60 L 139 60 L 138 59 L 137 59 L 136 58 L 135 58 L 134 57 L 133 57 L 132 56 L 131 56 L 130 55 L 129 55 L 128 54 L 127 54 L 126 53 L 124 53 L 123 52 L 122 52 L 121 51 L 119 51 L 118 50 L 116 50 L 115 49 L 114 49 L 113 48 L 93 48 L 92 47 L 83 47 L 82 46 L 75 46 L 74 45 L 70 45 L 69 44 L 65 44 L 64 43 L 60 43 L 59 42 L 56 42 L 55 41 L 52 41 L 51 40 Z M 58 1 L 57 2 L 54 2 L 53 3 L 51 3 L 50 4 L 48 4 L 47 5 L 46 5 L 45 6 L 44 6 L 38 12 L 38 13 L 37 14 L 37 21 L 38 22 L 38 23 L 43 28 L 44 28 L 45 29 L 46 29 L 47 30 L 48 30 L 49 31 L 50 31 L 51 32 L 52 32 L 53 33 L 55 33 L 56 34 L 58 34 L 59 35 L 62 35 L 63 36 L 66 36 L 67 37 L 71 37 L 72 38 L 78 38 L 79 39 L 87 39 L 88 40 L 112 40 L 113 39 L 118 39 L 119 38 L 120 38 L 121 37 L 123 37 L 127 33 L 127 26 L 126 25 L 126 24 L 120 18 L 119 18 L 116 15 L 115 15 L 114 14 L 113 14 L 111 12 L 110 12 L 109 11 L 107 11 L 106 10 L 105 10 L 104 9 L 102 9 L 101 8 L 100 8 L 99 7 L 97 7 L 96 6 L 94 6 L 93 5 L 91 5 L 90 4 L 87 4 L 86 3 L 83 3 L 82 2 L 76 2 L 75 1 Z"
    fill-rule="evenodd"
  />
</svg>
